<svg xmlns="http://www.w3.org/2000/svg" width="14.157" height="16.969" viewBox="0 0 14.157 16.969">
  <g id="invite_friends_" transform="translate(-43.457 0.25)">
    <g id="Group_2690" transform="translate(43.707 5.624)">
      <g id="Group_2689">
        <path id="Path_8624" d="M46.418,174.829a2.711,2.711,0,1,0,2.711,2.711A2.714,2.714,0,0,0,46.418,174.829Zm0,4.218a1.506,1.506,0,1,1,1.506-1.506A1.508,1.508,0,0,1,46.418,179.047Z" transform="translate(-43.707 -174.829)" fill="#ed9728" stroke="#fff" stroke-width="0.5"/>
      </g>
    </g>
    <g id="Group_2692" transform="translate(51.942)">
      <g id="Group_2691">
        <path id="Path_8625" d="M302.418,0a2.711,2.711,0,1,0,2.711,2.711A2.714,2.714,0,0,0,302.418,0Zm0,4.218a1.506,1.506,0,1,1,1.506-1.506A1.508,1.508,0,0,1,302.418,4.218Z" transform="translate(-299.707)" fill="#ed9728" stroke="#fff" stroke-width="0.5"/>
      </g>
    </g>
    <g id="Group_2694" transform="translate(51.942 11.046)">
      <g id="Group_2693">
        <path id="Path_8626" d="M302.418,343.415a2.711,2.711,0,1,0,2.711,2.711A2.714,2.714,0,0,0,302.418,343.415Zm0,4.218a1.506,1.506,0,1,1,1.506-1.506A1.508,1.508,0,0,1,302.418,347.633Z" transform="translate(-299.707 -343.415)" fill="#ed9728" stroke="#fff" stroke-width="0.5"/>
      </g>
    </g>
    <g id="Group_2696" transform="translate(47.779 3.492)">
      <g id="Group_2695" transform="translate(0)">
        <rect id="Rectangle_1827" width="6.027" height="1.205" transform="matrix(0.84, -0.543, 0.543, 0.84, 0, 3.273)" fill="#ed9728"/>
      </g>
    </g>
    <g id="Group_2698" transform="translate(47.777 8.955)">
      <g id="Group_2697" transform="translate(0 0)">
        <rect id="Rectangle_1828" width="1.205" height="5.866" transform="translate(0 1.011) rotate(-57.016)" fill="#ed9728"/>
      </g>
    </g>
  </g>
</svg>
